<?xml version="1.0" encoding="UTF-8"?>
<svg width="70px" height="55px" viewBox="0 0 70 55" version="1.1" xmlns="http://www.w3.org/2000/svg" xmlns:xlink="http://www.w3.org/1999/xlink">
    <!-- Generator: Sketch 41.2 (35397) - http://www.bohemiancoding.com/sketch -->
    <title>hat copy</title>
    <desc>Created with Sketch.</desc>
    <defs></defs>
    <g id="Prototype-#1" stroke="none" stroke-width="1" fill="none" fill-rule="evenodd">
        <g id="Merlin-12---Generating-5" transform="translate(-1248.000000, -721.000000)" fill="#000000">
            <g id="Output-Initial" transform="translate(505.000000, 0.000000)">
                <g id="Footer" transform="translate(128.000000, 721.000000)">
                    <path d="M683.417077,40.5762269 C678.810096,40.8046601 674.218568,42.3932137 674.218568,42.3932137 C673.541738,41.4270881 672.295216,31.848613 672.169533,24.3993865 C672.033549,16.4052736 675.421823,3.86031093 675.421823,3.86031093 C672.846364,1.79288599 664.037265,0 648.51652,0 C632.994745,0 627.719176,2.75901158 627.719176,2.75901158 C627.719176,2.75901158 630.089628,16.3361149 630.226642,22.8852309 C630.362627,29.4343469 628.262082,39.5650434 628.262082,39.5650434 C612.676436,36.8751905 615.863824,44.3904321 615.863824,44.3904321 C619.32112,55.0083829 634.632737,55 634.632737,55 C653.538665,55 662.633125,49.6381077 662.633125,49.6381077 C681.755391,52.0041724 684.535856,43.7606691 684.535856,43.7606691 C686.036834,40.4609625 683.417077,40.5762269 683.417077,40.5762269 Z M661.968656,24.9893309 C662.194267,29.9781855 662.15821,32.7906379 662.648578,43.1550069 C662.648578,43.1550069 660.279155,43.3509564 659.562148,43.1550069 C659.562148,43.1550069 660.30697,30.8751524 660.30697,25.6274768 C660.30697,20.3839925 660.520218,18.6277816 660.106085,4.55608901 C660.106085,4.55608901 661.288735,4.50264822 663.019444,4.90397805 C663.023564,4.90397805 661.743046,19.9994284 661.968656,24.9893309 Z M682.097412,43.4326894 C682.097412,43.4326894 671.425741,45.0537266 664.713065,48.5043248 L664.476123,48.5043248 C664.476123,48.5043248 670.930223,44.0792181 681.497845,42.3565386 C681.497845,42.3565386 683.614872,41.9227252 682.097412,43.4326894 Z" id="hat-copy"></path>
                </g>
            </g>
        </g>
    </g>
</svg>